HIERARCHY
ROOT newVegas:Hips
{
	OFFSET 0.000000 96.479958 0.000000
	CHANNELS 6 Xposition Yposition Zposition Xrotation Yrotation Zrotation
	JOINT newVegas:Pelvis
	{
		OFFSET 0.000000 0.000000 0.000000
		CHANNELS 3 Xrotation Yrotation Zrotation
		JOINT newVegas:LeftUpLeg
		{
			OFFSET 18.735201 -5.666702 -4.541200
			CHANNELS 3 Xrotation Yrotation Zrotation
			JOINT newVegas:LeftLeg
			{
				OFFSET -0.021200 -31.938179 0.493100
				CHANNELS 3 Xrotation Yrotation Zrotation
				JOINT newVegas:LeftFoot
				{
					OFFSET 0.021200 -31.938179 -4.336299
					CHANNELS 3 Xrotation Yrotation Zrotation
					JOINT newVegas:LeftToeBase
					{
						OFFSET 0.943001 -26.722000 15.023500
						CHANNELS 3 Xrotation Yrotation Zrotation
						End Site
						{
							OFFSET 0.000000 30.670183 0.000000
						}
					}
				}
				JOINT newVegas:Left_PantLeg
				{
					OFFSET 0.663870 -9.044666 -1.108900
					CHANNELS 3 Xrotation Yrotation Zrotation
					End Site
					{
						OFFSET 1.415995 20.635357 0.000000
					}
				}
			}
		}
		JOINT newVegas:RightUpLeg
		{
			OFFSET -18.735201 -5.666702 -4.541200
			CHANNELS 3 Xrotation Yrotation Zrotation
			JOINT newVegas:RightLeg
			{
				OFFSET 0.018946 -31.938133 0.493100
				CHANNELS 3 Xrotation Yrotation Zrotation
				JOINT newVegas:RightFoot
				{
					OFFSET -0.018946 -31.938126 -4.336299
					CHANNELS 3 Xrotation Yrotation Zrotation
					JOINT newVegas:RightToeBase
					{
						OFFSET -0.943001 -26.722004 15.023500
						CHANNELS 3 Xrotation Yrotation Zrotation
						End Site
						{
							OFFSET 0.000000 30.670187 0.000000
						}
					}
				}
				JOINT newVegas:Right_PantLeg
				{
					OFFSET -0.661674 -9.044716 -1.108900
					CHANNELS 3 Xrotation Yrotation Zrotation
					End Site
					{
						OFFSET -1.415958 20.635269 0.000000
					}
				}
			}
		}
	}
	JOINT newVegas:Spine
	{
		OFFSET 0.000000 10.199997 -0.299500
		CHANNELS 3 Xrotation Yrotation Zrotation
		JOINT newVegas:Spine1
		{
			OFFSET 0.000000 11.900002 -1.516600
			CHANNELS 3 Xrotation Yrotation Zrotation
			JOINT newVegas:Spine2
			{
				OFFSET 0.000000 13.600006 -2.842500
				CHANNELS 3 Xrotation Yrotation Zrotation
				JOINT newVegas:Neck
				{
					OFFSET 0.000000 9.624100 -2.890100
					CHANNELS 3 Xrotation Yrotation Zrotation
					JOINT newVegas:Head
					{
						OFFSET 0.000000 14.068802 -1.351900
						CHANNELS 3 Xrotation Yrotation Zrotation
						JOINT newVegas:Hair_Back
						{
							OFFSET 0.000000 3.231903 -17.524799
							CHANNELS 3 Xrotation Yrotation Zrotation
							End Site
							{
								OFFSET 0.000000 19.849884 0.000000
							}
						}
						JOINT newVegas:Hair_Front
						{
							OFFSET 0.000000 31.260406 4.573800
							CHANNELS 3 Xrotation Yrotation Zrotation
							JOINT newVegas:Hair_Front1
							{
								OFFSET 0.000000 2.284103 11.993300
								CHANNELS 3 Xrotation Yrotation Zrotation
								JOINT newVegas:Hair_Front2
								{
									OFFSET 0.000000 2.284103 11.993300
									CHANNELS 3 Xrotation Yrotation Zrotation
									End Site
									{
										OFFSET 0.000000 12.208862 0.000000
									}
								}
							}
						}
						JOINT newVegas:Jowel
						{
							OFFSET 0.000000 -7.458206 6.864100
							CHANNELS 3 Xrotation Yrotation Zrotation
							End Site
							{
								OFFSET 0.000000 19.849884 0.000000
							}
						}
					}
				}
				JOINT newVegas:LeftShoulder
				{
					OFFSET 15.263000 10.923401 -0.547700
					CHANNELS 3 Xrotation Yrotation Zrotation
					JOINT newVegas:LeftArm
					{
						OFFSET 25.438599 -2.830597 -13.032500
						CHANNELS 3 Xrotation Yrotation Zrotation
						JOINT newVegas:LeftForeArm
						{
							OFFSET 29.960503 0.000000 0.000000
							CHANNELS 3 Xrotation Yrotation Zrotation
							JOINT newVegas:LeftHand
							{
								OFFSET 27.849251 0.000000 0.000000
								CHANNELS 3 Xrotation Yrotation Zrotation
								JOINT newVegas:LeftHandThumb1
								{
									OFFSET 4.487587 -3.305161 6.305391
									CHANNELS 3 Xrotation Yrotation Zrotation
									JOINT newVegas:LeftHandThumb2
									{
										OFFSET 5.480453 -3.164139 3.164143
										CHANNELS 3 Xrotation Yrotation Zrotation
										JOINT newVegas:LeftHandThumb3
										{
											OFFSET 5.159721 -2.978973 2.978967
											CHANNELS 3 Xrotation Yrotation Zrotation
											End Site
											{
												OFFSET 2.494507 5.926697 1.738678
											}
										}
									}
								}
								JOINT newVegas:LeftHandIndex1
								{
									OFFSET 18.578728 -0.527832 5.208049
									CHANNELS 3 Xrotation Yrotation Zrotation
									JOINT newVegas:LeftHandIndex2
									{
										OFFSET 3.192009 0.000000 0.000000
										CHANNELS 3 Xrotation Yrotation Zrotation
										JOINT newVegas:LeftHandIndex3
										{
											OFFSET 3.835129 0.000000 0.000000
											CHANNELS 3 Xrotation Yrotation Zrotation
											End Site
											{
												OFFSET -0.034599 3.816971 0.371180
											}
										}
									}
								}
								JOINT newVegas:LeftHandMiddle1
								{
									OFFSET 18.476105 0.000000 0.000000
									CHANNELS 3 Xrotation Yrotation Zrotation
									JOINT newVegas:LeftHandMiddle2
									{
										OFFSET 3.324875 0.000000 0.000000
										CHANNELS 3 Xrotation Yrotation Zrotation
										JOINT newVegas:LeftHandMiddle3
										{
											OFFSET 4.596550 0.000000 0.000000
											CHANNELS 3 Xrotation Yrotation Zrotation
											End Site
											{
												OFFSET 0.057701 4.578827 0.399218
											}
										}
									}
								}
								JOINT newVegas:LeftHandRing1
								{
									OFFSET 17.732719 0.121887 -4.201567
									CHANNELS 3 Xrotation Yrotation Zrotation
									JOINT newVegas:LeftHandRing2
									{
										OFFSET 2.733170 0.000000 0.000000
										CHANNELS 3 Xrotation Yrotation Zrotation
										JOINT newVegas:LeftHandRing3
										{
											OFFSET 3.178268 0.000000 0.000000
											CHANNELS 3 Xrotation Yrotation Zrotation
											End Site
											{
												OFFSET 0.119102 3.170624 0.185394
											}
										}
									}
								}
								JOINT newVegas:LeftHandPinky1
								{
									OFFSET 15.989624 -0.606689 -7.535461
									CHANNELS 3 Xrotation Yrotation Zrotation
									JOINT newVegas:LeftHandPinky2
									{
										OFFSET 2.538986 0.000000 0.000000
										CHANNELS 3 Xrotation Yrotation Zrotation
										JOINT newVegas:LeftHandPinky3
										{
											OFFSET 2.593102 0.000000 0.000000
											CHANNELS 3 Xrotation Yrotation Zrotation
											End Site
											{
												OFFSET -0.150902 2.584198 0.152708
											}
										}
									}
								}
							}
							JOINT newVegas:Left_Sleeve
							{
								OFFSET 0.267448 -0.649796 0.577675
								CHANNELS 3 Xrotation Yrotation Zrotation
								End Site
								{
									OFFSET 0.000000 15.991241 0.000000
								}
							}
							JOINT newVegas:Left_CapeC
							{
								OFFSET 15.715958 -8.608795 -6.935905
								CHANNELS 3 Xrotation Yrotation Zrotation
								JOINT newVegas:Left_CapeC1
								{
									OFFSET 0.000000 -8.688499 0.000000
									CHANNELS 3 Xrotation Yrotation Zrotation
									End Site
									{
										OFFSET 0.000000 8.688499 0.000000
									}
								}
							}
						}
						JOINT newVegas:Left_CapeB
						{
							OFFSET 26.118385 -8.608795 -7.079235
							CHANNELS 3 Xrotation Yrotation Zrotation
							JOINT newVegas:Left_CapeB1
							{
								OFFSET 0.000000 -8.688499 0.000000
								CHANNELS 3 Xrotation Yrotation Zrotation
								End Site
								{
									OFFSET 0.000000 8.688499 0.000000
								}
							}
						}
						JOINT newVegas:Left_CapeA
						{
							OFFSET 5.115639 -8.608795 -10.395809
							CHANNELS 3 Xrotation Yrotation Zrotation
							JOINT newVegas:Left_CapeA1
							{
								OFFSET 0.000000 -8.688499 0.000000
								CHANNELS 3 Xrotation Yrotation Zrotation
								End Site
								{
									OFFSET 0.000000 8.688499 0.000000
								}
							}
						}
					}
				}
				JOINT newVegas:RightShoulder
				{
					OFFSET -15.263000 10.923401 -0.547700
					CHANNELS 3 Xrotation Yrotation Zrotation
					JOINT newVegas:RightArm
					{
						OFFSET -25.438599 -2.830597 -13.032500
						CHANNELS 3 Xrotation Yrotation Zrotation
						JOINT newVegas:RightForeArm
						{
							OFFSET -29.960503 0.000000 0.000000
							CHANNELS 3 Xrotation Yrotation Zrotation
							JOINT newVegas:RightHand
							{
								OFFSET -27.849251 0.000000 0.000000
								CHANNELS 3 Xrotation Yrotation Zrotation
								JOINT newVegas:RightHandThumb1
								{
									OFFSET -4.487587 -3.305161 6.305391
									CHANNELS 3 Xrotation Yrotation Zrotation
									JOINT newVegas:RightHandThumb2
									{
										OFFSET -5.480453 -3.164139 3.164143
										CHANNELS 3 Xrotation Yrotation Zrotation
										JOINT newVegas:RightHandThumb3
										{
											OFFSET -5.159721 -2.978973 2.978967
											CHANNELS 3 Xrotation Yrotation Zrotation
											End Site
											{
												OFFSET -2.494507 5.926697 1.738678
											}
										}
									}
								}
								JOINT newVegas:RightHandIndex1
								{
									OFFSET -18.578728 -0.527832 5.208049
									CHANNELS 3 Xrotation Yrotation Zrotation
									JOINT newVegas:RightHandIndex2
									{
										OFFSET -3.192009 0.000000 0.000000
										CHANNELS 3 Xrotation Yrotation Zrotation
										JOINT newVegas:RightHandIndex3
										{
											OFFSET -3.835129 0.000000 0.000000
											CHANNELS 3 Xrotation Yrotation Zrotation
											End Site
											{
												OFFSET 0.034599 3.816971 0.371180
											}
										}
									}
								}
								JOINT newVegas:RightHandMiddle1
								{
									OFFSET -18.476105 0.000000 0.000000
									CHANNELS 3 Xrotation Yrotation Zrotation
									JOINT newVegas:RightHandMiddle2
									{
										OFFSET -3.324875 0.000000 0.000000
										CHANNELS 3 Xrotation Yrotation Zrotation
										JOINT newVegas:RightHandMiddle3
										{
											OFFSET -4.596550 0.000000 0.000000
											CHANNELS 3 Xrotation Yrotation Zrotation
											End Site
											{
												OFFSET -0.057701 4.578827 0.399218
											}
										}
									}
								}
								JOINT newVegas:RightHandRing1
								{
									OFFSET -17.732719 0.121887 -4.201567
									CHANNELS 3 Xrotation Yrotation Zrotation
									JOINT newVegas:RightHandRing2
									{
										OFFSET -2.733170 0.000000 0.000000
										CHANNELS 3 Xrotation Yrotation Zrotation
										JOINT newVegas:RightHandRing3
										{
											OFFSET -3.178268 0.000000 0.000000
											CHANNELS 3 Xrotation Yrotation Zrotation
											End Site
											{
												OFFSET -0.119102 3.170624 0.185394
											}
										}
									}
								}
								JOINT newVegas:RightHandPinky1
								{
									OFFSET -15.989624 -0.606689 -7.535461
									CHANNELS 3 Xrotation Yrotation Zrotation
									JOINT newVegas:RightHandPinky2
									{
										OFFSET -2.538986 0.000000 0.000000
										CHANNELS 3 Xrotation Yrotation Zrotation
										JOINT newVegas:RightHandPinky3
										{
											OFFSET -2.593102 0.000000 0.000000
											CHANNELS 3 Xrotation Yrotation Zrotation
											End Site
											{
												OFFSET 0.150902 2.584198 0.152708
											}
										}
									}
								}
							}
							JOINT newVegas:Right_CapeC
							{
								OFFSET -15.715958 -8.608795 -6.935905
								CHANNELS 3 Xrotation Yrotation Zrotation
								JOINT newVegas:Right_CapeC1
								{
									OFFSET 0.000000 -8.688499 0.000000
									CHANNELS 3 Xrotation Yrotation Zrotation
									End Site
									{
										OFFSET 0.000000 8.688499 0.000000
									}
								}
							}
							JOINT newVegas:Right_Sleeve
							{
								OFFSET -0.267448 -0.649994 0.577675
								CHANNELS 3 Xrotation Yrotation Zrotation
								End Site
								{
									OFFSET 0.000000 15.991302 0.000000
								}
							}
						}
						JOINT newVegas:Right_CapeA
						{
							OFFSET -5.115540 -8.608795 -10.395824
							CHANNELS 3 Xrotation Yrotation Zrotation
							JOINT newVegas:Right_CapeA1
							{
								OFFSET 0.000000 -8.688499 0.000000
								CHANNELS 3 Xrotation Yrotation Zrotation
								End Site
								{
									OFFSET 0.000000 8.688499 0.000000
								}
							}
						}
						JOINT newVegas:Right_CapeB
						{
							OFFSET -26.118187 -8.608795 -7.079266
							CHANNELS 3 Xrotation Yrotation Zrotation
							JOINT newVegas:Right_CapeB1
							{
								OFFSET 0.000000 -8.688499 0.000000
								CHANNELS 3 Xrotation Yrotation Zrotation
								End Site
								{
									OFFSET 0.000000 8.688499 0.000000
								}
							}
						}
					}
				}
				JOINT newVegas:Left_Collar
				{
					OFFSET 18.625099 8.655502 8.828100
					CHANNELS 3 Xrotation Yrotation Zrotation
					JOINT newVegas:Left_Collar1
					{
						OFFSET 14.783401 10.540405 -1.259500
						CHANNELS 3 Xrotation Yrotation Zrotation
						End Site
						{
							OFFSET 0.000000 18.199875 0.000000
						}
					}
				}
				JOINT newVegas:Collar_Back
				{
					OFFSET 0.000000 15.630707 -20.132601
					CHANNELS 3 Xrotation Yrotation Zrotation
					End Site
					{
						OFFSET 0.000000 22.523010 0.000000
					}
				}
				JOINT newVegas:Left_Peck
				{
					OFFSET 17.239599 -5.132599 25.482599
					CHANNELS 3 Xrotation Yrotation Zrotation
					End Site
					{
						OFFSET 0.000000 22.523010 0.000000
					}
				}
				JOINT newVegas:Right_Peck
				{
					OFFSET -17.239599 -5.132202 25.482599
					CHANNELS 3 Xrotation Yrotation Zrotation
					End Site
					{
						OFFSET 0.000000 22.523010 0.000000
					}
				}
				JOINT newVegas:Right_Collar
				{
					OFFSET -18.625099 8.655792 8.828100
					CHANNELS 3 Xrotation Yrotation Zrotation
					JOINT newVegas:Right_Collar1
					{
						OFFSET -14.783401 10.539993 -1.259500
						CHANNELS 3 Xrotation Yrotation Zrotation
						End Site
						{
							OFFSET 0.000000 18.199631 0.000000
						}
					}
				}
			}
		}
		JOINT newVegas:Belly
		{
			OFFSET 0.000000 -6.540398 9.014299
			CHANNELS 3 Xrotation Yrotation Zrotation
			End Site
			{
				OFFSET 0.000000 11.566666 0.000000
			}
		}
	}
	JOINT newVegas:ElvisFacialAnim_Joint
	{
		OFFSET 1.000000 -95.330101 -8.825800
		CHANNELS 3 Xrotation Yrotation Zrotation
		End Site
		{
			OFFSET 0.000000 35.315800 0.000000
		}
	}
}
MOTION
Frames: 4
Frame Time: 0.033333
-0.168102 88.242302 -5.781918 16.310765 -2.382082 -2.162649 0.000001 0.000000 0.000000 -52.934997 6.257043 15.706708 44.622818 8.428225 1.616867 -7.048385 2.573926 -7.431592 0.000000 0.000000 0.000000 -0.000001 -0.000001 0.000000 -49.640357 -19.067072 -9.657922 35.396404 -3.389552 -9.028630 -3.793598 -0.992478 9.638871 0.000000 0.000002 0.000000 -0.000000 -0.000001 -0.000000 24.176923 -7.886271 -8.687435 -0.466330 -0.788427 0.389536 -0.432330 -0.802765 0.461903 -6.972154 0.705419 1.557646 -6.972189 0.705421 1.557654 0.000000 0.000000 0.000000 -6.972140 0.705408 1.557646 -6.972024 0.705451 1.557642 0.000000 -0.000000 -0.000001 0.000000 0.000000 0.000000 0.855784 0.659779 -2.538309 -19.816373 -9.504417 -64.446216 -0.000029 -114.684354 -0.000049 21.656296 27.767984 -17.095333 -6.912461 -6.826655 22.000068 7.736207 24.074858 6.021081 0.000003 -0.000001 0.000001 0.302171 -2.021191 17.003737 1.250440 3.961836 -35.021938 0.000000 0.000000 -0.000001 0.302734 -2.023023 17.019744 1.251543 3.963390 -35.038003 0.000001 0.000000 0.000000 0.302159 -2.021172 17.003746 1.250454 3.961823 -35.021945 -0.000001 0.000001 0.000000 -0.900397 1.850711 17.512386 1.264633 -0.102755 -35.443201 -0.000003 -0.000001 -0.000003 -0.000000 0.000000 -0.000000 -0.000000 0.000000 -0.000000 -0.000000 0.000000 -0.000001 0.000002 -0.000002 0.000001 0.000002 -0.000002 0.000000 0.000002 -0.000002 0.000001 0.000000 -0.000002 0.000001 1.479777 5.976358 -1.716877 23.779961 -2.187963 48.878654 -0.000000 122.323716 -0.000004 -25.265787 18.093834 43.241262 8.743160 -13.106727 -3.865494 -13.699549 -21.578495 -23.794823 -0.000000 0.000001 0.000001 0.139693 -1.389439 11.480037 2.403338 -5.261180 49.078461 -0.000001 -0.000001 0.000004 0.139697 -1.389434 11.480040 2.403340 -5.261165 49.078461 -0.000001 0.000000 0.000000 0.139700 -1.389432 11.480034 2.403347 -5.261174 49.078461 -0.000001 0.000001 -0.000000 0.139690 -1.389437 11.480040 2.403331 -5.261170 49.078451 -0.000001 0.000002 -0.000001 0.000001 -0.000001 -0.000000 0.000003 0.000001 0.000000 0.000001 -0.000001 -0.000001 -0.000001 0.000000 -0.000001 -0.000001 0.000001 0.000001 -0.000001 0.000000 -0.000001 -0.000001 0.000001 0.000003 -0.000000 -0.000001 -0.000001 -0.000000 -0.000001 -0.000001 -0.000000 -0.000001 -0.000001 -0.000000 -0.000001 -0.000001 -0.000000 -0.000001 -0.000001 -0.000000 -0.000001 -0.000001 -0.000000 -0.000001 -0.000001 -0.000003 -0.000000 -0.000000 0.000001 0.000000 0.000000 
-0.228024 88.261627 -5.732117 16.312064 -2.486908 -2.169092 0.000001 0.000000 0.000000 -52.733384 5.874440 15.872639 44.648762 8.430693 1.224179 -7.096390 2.826894 -7.454509 0.000000 -0.000000 -0.000000 -0.000000 -0.000001 0.000000 -49.542084 -19.128291 -9.490906 35.298049 -3.325783 -9.115996 -3.802850 -0.992462 9.617609 -0.000000 0.000000 -0.000000 0.000001 0.000001 -0.000000 24.118895 -8.295209 -8.761710 -0.386887 -0.852134 0.452129 -0.349055 -0.862502 0.527939 -7.055611 0.737941 1.534821 -7.055623 0.737937 1.534816 0.000002 -0.000000 0.000000 -7.055539 0.737943 1.534818 -7.055688 0.737937 1.534820 -0.000000 0.000000 0.000001 0.000002 -0.000000 -0.000000 0.817931 0.857149 -2.826561 -19.585287 -9.156025 -64.047743 0.000065 -115.060192 0.000078 21.544100 27.880716 -16.784688 -6.912463 -6.826654 22.000068 7.736204 24.074858 6.021082 -0.000001 -0.000001 -0.000003 0.302170 -2.021189 17.003737 1.250445 3.961835 -35.021938 -0.000000 -0.000005 -0.000001 0.302727 -2.023020 17.019745 1.251544 3.963389 -35.038000 -0.000001 -0.000003 -0.000001 0.302159 -2.021170 17.003744 1.250452 3.961824 -35.021955 -0.000001 -0.000001 0.000001 -0.900398 1.850719 17.512381 1.264636 -0.102755 -35.443201 -0.000001 -0.000005 -0.000002 0.000000 -0.000000 -0.000001 0.000000 -0.000000 -0.000001 0.000000 -0.000001 -0.000001 0.000002 -0.000001 -0.000000 0.000002 0.000000 -0.000001 0.000002 -0.000001 -0.000000 0.000002 -0.000001 0.000000 1.381690 5.366264 -1.917744 24.264561 -5.177104 50.123258 0.000001 122.378917 -0.000003 -26.132910 20.319022 46.201705 8.743160 -13.106713 -3.865502 -13.699532 -21.578502 -23.794791 0.000002 -0.000002 0.000003 0.088038 -1.105108 9.107603 2.801744 -5.580234 53.293917 0.000002 -0.000002 0.000001 0.088033 -1.105106 9.107602 2.801736 -5.580227 53.293920 0.000001 0.000001 -0.000003 0.088044 -1.105106 9.107599 2.801747 -5.580219 53.293917 0.000002 0.000004 -0.000002 0.088038 -1.105113 9.107608 2.801735 -5.580227 53.293910 0.000001 0.000002 -0.000001 -0.000002 0.000003 -0.000001 -0.000001 -0.000001 0.000003 -0.000002 0.000003 -0.000000 0.000001 0.000003 -0.000003 -0.000000 0.000003 -0.000003 0.000001 0.000003 -0.000003 -0.000000 0.000003 -0.000001 -0.000002 0.000000 -0.000000 -0.000002 0.000000 -0.000000 -0.000002 0.000000 -0.000000 -0.000002 0.000000 -0.000000 -0.000002 0.000000 -0.000000 -0.000002 0.000000 -0.000000 -0.000002 0.000000 -0.000000 0.000000 0.000002 0.000001 0.000001 0.000000 0.000000 
-0.268458 88.267075 -5.699709 16.354661 -2.547916 -2.128816 -0.000000 0.000000 -0.000000 -52.610266 5.612779 15.929505 44.634678 8.473107 0.940876 -7.111315 2.994426 -7.446036 0.000000 -0.000000 0.000000 0.000000 0.000002 0.000001 -49.562588 -19.011318 -9.452716 35.329457 -3.371280 -9.059951 -3.853471 -0.995692 9.583760 0.000000 0.000000 0.000000 0.000001 -0.000001 0.000000 24.054970 -8.651413 -8.866369 -0.283949 -0.907863 0.518853 -0.242021 -0.913649 0.596766 -7.146668 0.763754 1.505788 -7.146680 0.763750 1.505796 -0.000000 0.000000 0.000000 -7.146737 0.763745 1.505797 -7.146599 0.763777 1.505789 0.000002 -0.000001 0.000001 -0.000000 0.000000 0.000000 0.784804 1.035047 -3.125896 -19.525448 -8.864652 -63.713719 0.000010 -115.344041 -0.000013 21.578413 27.990841 -16.729420 -6.912467 -6.826656 22.000067 7.736209 24.074861 6.021083 -0.000001 0.000000 0.000001 0.302176 -2.021187 17.003737 1.250448 3.961837 -35.021935 0.000000 0.000000 -0.000001 0.302733 -2.023022 17.019742 1.251545 3.963388 -35.038003 -0.000001 0.000001 -0.000002 0.302156 -2.021172 17.003744 1.250453 3.961822 -35.021952 -0.000002 -0.000003 0.000004 -0.900396 1.850713 17.512386 1.264635 -0.102758 -35.443201 0.000001 -0.000003 -0.000001 -0.000000 0.000000 0.000001 -0.000000 0.000000 0.000001 -0.000000 0.000000 0.000001 0.000003 0.000001 -0.000000 0.000003 0.000001 0.000000 0.000003 0.000001 -0.000000 0.000003 0.000000 -0.000000 1.315308 4.956953 -2.031192 24.927129 -7.202420 51.322451 -0.000013 122.153699 -0.000015 -25.893730 21.965441 47.913278 8.743161 -13.106738 -3.865508 -13.699543 -21.578487 -23.794788 -0.000000 -0.000002 -0.000001 0.041485 -0.759863 6.247854 3.147468 -5.820810 56.773434 -0.000002 -0.000000 0.000001 0.041473 -0.759860 6.247859 3.147480 -5.820800 56.773427 -0.000002 0.000001 -0.000000 0.041482 -0.759856 6.247856 3.147481 -5.820808 56.773434 0.000001 -0.000001 0.000002 0.041480 -0.759863 6.247850 3.147466 -5.820794 56.773434 0.000000 0.000002 -0.000001 -0.000001 -0.000003 0.000002 0.000002 -0.000001 0.000003 -0.000001 -0.000003 0.000004 -0.000005 0.000001 -0.000001 -0.000005 0.000002 -0.000001 -0.000005 0.000001 -0.000001 -0.000005 0.000002 0.000001 -0.000002 -0.000000 0.000000 -0.000002 -0.000000 0.000000 -0.000002 -0.000000 0.000000 -0.000002 -0.000000 0.000000 -0.000002 -0.000000 0.000000 -0.000002 -0.000000 0.000000 -0.000002 -0.000000 0.000000 0.000000 -0.000001 0.000000 -0.000000 0.000000 -0.000000 
-0.298007 88.252762 -5.697395 16.429320 -2.609376 -2.039388 0.000000 0.000000 -0.000000 -52.561956 5.493618 15.926652 44.584784 8.536186 0.790513 -7.093157 3.076226 -7.490353 0.000000 0.000000 -0.000000 -0.000000 -0.000001 -0.000000 -49.717674 -18.744325 -9.509812 35.479735 -3.478258 -8.891179 -3.903822 -0.994766 9.521571 -0.000000 0.000000 -0.000000 0.000001 0.000001 0.000000 23.999948 -8.928951 -8.988281 -0.182908 -0.949177 0.556434 -0.137621 -0.951851 0.634969 -7.234829 0.780258 1.479167 -7.234833 0.780256 1.479172 0.000000 -0.000001 -0.000000 -7.234839 0.780259 1.479168 -7.234839 0.780255 1.479168 0.000001 0.000000 0.000001 0.000000 -0.000001 -0.000000 0.759552 1.170857 -3.370834 -19.633594 -8.632946 -63.497742 -0.000002 -115.511586 0.000004 21.761295 28.036296 -16.935729 -6.912462 -6.826655 22.000068 7.736209 24.074865 6.021081 0.000001 -0.000000 -0.000003 0.302169 -2.021190 17.003737 1.250449 3.961838 -35.021938 -0.000001 0.000002 0.000002 0.302730 -2.023023 17.019744 1.251543 3.963389 -35.037996 -0.000001 0.000001 -0.000002 0.302161 -2.021171 17.003744 1.250453 3.961822 -35.021952 0.000000 -0.000002 0.000001 -0.900400 1.850711 17.512383 1.264631 -0.102758 -35.443201 0.000002 -0.000004 0.000003 0.000000 0.000001 0.000002 0.000000 0.000001 0.000002 0.000000 0.000001 0.000002 0.000002 0.000000 -0.000001 0.000002 0.000000 -0.000001 0.000002 0.000000 -0.000001 0.000002 0.000000 -0.000001 1.288488 4.786994 -2.052819 25.586666 -8.139836 52.467990 0.000039 121.882567 -0.000015 -24.893605 23.529819 48.337638 8.743158 -13.106730 -3.865503 -13.699533 -21.578487 -23.794798 0.000000 0.000001 0.000001 0.011929 -0.407802 3.348164 3.392897 -5.973552 59.161719 -0.000001 0.000001 0.000002 0.011925 -0.407798 3.348160 3.392893 -5.973534 59.161712 -0.000001 0.000004 -0.000001 0.011937 -0.407804 3.348155 3.392890 -5.973539 59.161719 -0.000000 0.000003 -0.000003 0.011929 -0.407800 3.348166 3.392878 -5.973539 59.161712 0.000000 0.000003 0.000000 -0.000000 -0.000002 0.000001 -0.000000 -0.000002 0.000002 -0.000000 -0.000002 0.000001 -0.000002 0.000003 -0.000003 -0.000002 0.000004 -0.000001 -0.000002 0.000003 -0.000003 -0.000002 0.000004 0.000000 -0.000000 0.000000 0.000000 -0.000000 0.000000 0.000000 -0.000000 0.000000 0.000000 -0.000000 0.000000 0.000000 -0.000000 0.000000 0.000000 -0.000000 0.000000 0.000000 -0.000000 0.000000 0.000000 -0.000002 -0.000001 0.000000 0.000000 0.000000 -0.000000 
